#!OML:ASF E:\Steps\Project 1\Capture day 1\Session 2\Subject.ASF
:FULLY-SPECIFIED
:DEGREES
131
root 16.4446 16.3581 21.3614 -155.858 -3.57075 177.204
lowerback -28.3784 -1.88791 -7.22977
upperback -0.0749946 -0.484291 -0.367481
thorax 15.0406 -0.90966 3.31119
lowerneck -5.68916 1.13574 -0.800194
upperneck 9.77749 0.971602 4.11174
head 4.21322 0.558901 1.57298
rclavicle 1.3418e-014 -1.19271e-015
rhumerus -35.4308 -17.7313 -81.1953
rradius 32.9966
rwrist -6.9665
rhand -16.9701 -85.0766
rfingers 7.12502
rthumb 9.26416 -245.147
lclavicle 1.3418e-014 -1.19271e-015
lhumerus -29.6052 5.78898 81.2573
lradius 23.6736
lwrist -3.27751
lhand -22.4465 -13.4547
lfingers 7.12502
lthumb 3.97758 16.4879
rfemur -22.8245 6.7122 19.6365
rtibia 10.2701
rfoot -19.6795 -5.10716
rtoes -16.7043
lfemur -24.5366 -9.97628 -20.3461
ltibia 10.9556
lfoot -7.31214 -4.20929
ltoes -33.2703
132
root 16.458 16.3582 21.376 -155.829 -3.75104 177.164
lowerback -28.3015 -1.89691 -7.25196
upperback 0.00390181 -0.476783 -0.382319
thorax 15.0964 -0.905957 3.31238
lowerneck -5.84735 1.13794 -0.586513
upperneck 9.91358 0.986761 3.78116
head 4.2938 0.562937 1.42753
rclavicle -1.25234e-014 -9.93923e-015
rhumerus -35.2903 -17.7539 -81.2388
rradius 32.8917
rwrist -6.73124
rhand -16.8685 -85.1157
rfingers 7.12502
rthumb 9.3622 -245.112
lclavicle -1.25234e-014 -9.93923e-015
lhumerus -29.4519 5.64415 81.3006
lradius 23.8525
lwrist -3.11959
lhand -22.3517 -13.3111
lfingers 7.12502
lthumb 4.06916 16.6298
rfemur -22.9527 6.66911 19.6863
rtibia 10.4187
rfoot -19.8041 -5.26583
rtoes -16.913
lfemur -24.8601 -10.1841 -20.2694
ltibia 11.4001
lfoot -7.41351 -4.16733
ltoes -32.5452
133
root 16.4708 16.3592 21.3867 -155.845 -3.93226 177.117
lowerback -28.1842 -1.91516 -7.28989
upperback 0.0802285 -0.482291 -0.373171
thorax 15.1319 -0.908889 3.34411
lowerneck -5.82364 1.32553 -0.837814
upperneck 9.77555 1.25298 3.9911
head 4.23099 0.695935 1.55586
rclavicle 7.15625e-015 5.76476e-015
rhumerus -35.093 -17.7013 -81.2583
rradius 32.7611
rwrist -6.54965
rhand -16.7504 -85.2365
rfingers 7.12502
rthumb 9.4762 -244.997
lclavicle 7.15625e-015 5.76476e-015
lhumerus -29.3405 5.51344 81.3738
lradius 23.9625
lwrist -3.11768
lhand -22.5221 -13.2217
lfingers 7.12502
lthumb 3.90464 16.7223
rfemur -23.009 6.50026 19.752
rtibia 10.5371
rfoot -19.8655 -5.27021
rtoes -17.5894
lfemur -25.0166 -10.3211 -20.2273
ltibia 11.6213
lfoot -7.32759 -4.20815
ltoes -31.0596
134
root 16.4835 16.3598 21.3963 -155.905 -4.10145 177.137
lowerback -28.0047 -1.90981 -7.26612
upperback 0.100596 -0.493559 -0.334839
thorax 15.073 -0.90824 3.37278
lowerneck -5.68053 1.50955 -1.09189
upperneck 9.75562 1.49629 4.2422
head 4.18614 0.814899 1.69696
rclavicle 2.23136e-014 1.51076e-014
rhumerus -35.0155 -17.5192 -81.2798
rradius 32.8062
rwrist -6.44414
rhand -16.6331 -85.6006
rfingers 7.12502
rthumb 9.5894 -244.638
lclavicle 2.23136e-014 1.51076e-014
lhumerus -29.4553 5.5689 81.453
lradius 24.11
lwrist -3.307
lhand -22.872 -13.415
lfingers 7.12502
lthumb 3.56674 16.5349
rfemur -22.9634 6.52491 19.8621
rtibia 10.5313
rfoot -19.8515 -5.35102
rtoes -17.2398
lfemur -25.081 -10.486 -20.1011
ltibia 11.7411
lfoot -7.36712 -4.17235
ltoes -31.2904
135
root 16.4963 16.3597 21.4068 -155.975 -4.29667 177.203
lowerback -27.8011 -1.86051 -7.16148
upperback 0.0918443 -0.474898 -0.329599
thorax 14.9643 -0.886252 3.33294
lowerneck -5.68337 1.47033 -0.850583
upperneck 10.0534 1.42323 4.00203
head 4.29762 0.773805 1.57328
rclavicle 2.08724e-015 2.78299e-015
rhumerus -35.1641 -17.4832 -81.3124
rradius 33.0892
rwrist -6.19482
rhand -16.5028 -86.096
rfingers 7.12502
rthumb 9.7151 -244.148
lclavicle 2.08724e-015 2.78299e-015
lhumerus -29.5945 5.40211 81.5507
lradius 24.3323
lwrist -3.29795
lhand -23.196 -13.3107
lfingers 7.12502
lthumb 3.25384 16.6443
rfemur -22.9198 6.5521 20.0284
rtibia 10.5514
rfoot -19.8641 -5.39437
rtoes -16.2175
lfemur -25.1876 -10.6148 -19.9316
ltibia 11.9651
lfoot -7.50286 -4.1543
ltoes -32.057
136
root 16.5122 16.3596 21.4222 -156.003 -4.58503 177.263
lowerback -27.6251 -1.82411 -7.05755
upperback 0.117914 -0.46169 -0.351642
thorax 14.9097 -0.867168 3.26116
lowerneck -5.75827 1.41405 -0.582334
upperneck 10.2935 1.32851 3.77825
head 4.40395 0.725749 1.44898
rclavicle -6.60959e-015 7.95139e-016
rhumerus -35.2838 -17.3994 -81.4229
rradius 33.44
rwrist -6.15239
rhand -16.3864 -86.5184
rfingers 7.12502
rthumb 9.82739 -243.731
lclavicle -6.60959e-015 7.95139e-016
lhumerus -29.5445 5.10777 81.5831
lradius 24.5696
lwrist -3.09546
lhand -23.1806 -13.0283
lfingers 7.12502
lthumb 3.26868 16.9264
rfemur -22.9371 6.506 20.2302
rtibia 10.599
rfoot -19.8324 -5.49432
rtoes -15.3529
lfemur -25.4376 -10.5879 -19.7655
ltibia 12.3456
lfoot -7.4972 -4.39581
ltoes -31.8503
137
root 16.5276 16.3583 21.4364 -155.958 -4.77483 177.271
lowerback -27.5977 -1.7882 -6.99051
upperback 0.185562 -0.419105 -0.400824
thorax 14.9712 -0.84148 3.18865
lowerneck -5.75851 1.48843 -0.606708
upperneck 10.3401 1.41662 3.86666
head 4.41823 0.771447 1.48907
rclavicle -6.06293e-015 2.5842e-014
rhumerus -35.213 -17.1875 -81.5895
rradius 33.595
rwrist -6.29354
rhand -16.2779 -86.8057
rfingers 7.12502
rthumb 9.93203 -243.449
lclavicle -6.06293e-015 2.5842e-014
lhumerus -29.4296 5.14415 81.5071
lradius 24.757
lwrist -3.1419
lhand -22.9564 -13.0937
lfingers 7.12502
lthumb 3.48524 16.8576
rfemur -23.0824 6.65326 20.3106
rtibia 10.7293
rfoot -19.8087 -5.74264
rtoes -14.6803
lfemur -25.7385 -10.6549 -19.6307
ltibia 12.6847
lfoot -7.45759 -4.49129
ltoes -31.3657
138
root 16.5395 16.3545 21.4436 -155.937 -4.81229 177.185
lowerback -27.594 -1.75447 -7.02355
upperback 0.233348 -0.35092 -0.444182
thorax 15.0177 -0.812697 3.18595
lowerneck -5.67836 1.60003 -0.707449
upperneck 10.3566 1.56221 3.97068
head 4.40299 0.842245 1.54946
rclavicle -6.60959e-015 1.59028e-015
rhumerus -35.1117 -17.1885 -81.5958
rradius 33.4894
rwrist -6.24169
rhand -16.2273 -86.8206
rfingers 7.12502
rthumb 9.98086 -243.436
lclavicle -6.60959e-015 1.59028e-015
lhumerus -29.4005 5.33565 81.4483
lradius 24.7786
lwrist -3.34559
lhand -22.7295 -13.4201
lfingers 7.12502
lthumb 3.70436 16.5275
rfemur -23.1811 6.60303 20.263
rtibia 10.8275
rfoot -19.8102 -5.70178
rtoes -14.1174
lfemur -25.9028 -10.8978 -19.6146
ltibia 12.8974
lfoot -7.49292 -4.3434
ltoes -30.5616
139
root 16.5532 16.3526 21.4534 -156.021 -4.92484 177.131
lowerback -27.3918 -1.73439 -7.06169
upperback 0.262769 -0.317766 -0.45246
thorax 14.9514 -0.795518 3.21408
lowerneck -5.55308 1.72492 -0.812589
upperneck 10.301 1.73657 4.03358
head 4.35149 0.925653 1.59582
rclavicle 4.07509e-015 4.9895e-014
rhumerus -35.0763 -17.3551 -81.4936
rradius 33.402
rwrist -6.01615
rhand -16.1939 -86.7837
rfingers 7.12502
rthumb 10.0131 -243.474
lclavicle 4.07509e-015 4.9895e-014
lhumerus -29.5226 5.27295 81.4558
lradius 24.9627
lwrist -3.33828
lhand -22.2941 -13.5236
lfingers 7.12502
lthumb 4.12478 16.4163
rfemur -23.1297 6.51856 20.2838
rtibia 10.8329
rfoot -19.8623 -5.67434
rtoes -13.7013
lfemur -26.023 -11.1377 -19.5642
ltibia 13.2196
lfoot -7.64064 -4.25589
ltoes -30.2059
140
root 16.5659 16.3518 21.4612 -156.176 -5.06409 177.135
lowerback -27.2136 -1.65652 -7.00296
upperback 0.357766 -0.22195 -0.499502
thorax 14.9671 -0.74331 3.17143
lowerneck -5.51303 1.80698 -0.806489
upperneck 10.2584 1.85011 4.0328
head 4.32463 0.982051 1.59886
rclavicle 1.72446e-014 -1.0138e-014
rhumerus -35.0717 -17.3904 -81.4974
rradius 33.5609
rwrist -5.88888
rhand -16.0984 -86.966
rfingers 7.12502
rthumb 10.1053 -243.297
lclavicle 1.72446e-014 -1.0138e-014
lhumerus -29.6457 4.91936 81.5264
lradius 25.3768
lwrist -3.10194
lhand -21.9395 -13.2866
lfingers 7.12502
lthumb 4.46718 16.6463
rfemur -22.9641 6.6502 20.3491
rtibia 10.7876
rfoot -19.9094 -5.8286
rtoes -13.4547
lfemur -26.0532 -11.3925 -19.4606
ltibia 13.5386
lfoot -7.8075 -4.10111
ltoes -31.0727
141
root 16.5767 16.3497 21.4654 -156.256 -5.1474 177.141
lowerback -27.1767 -1.53434 -6.90093
upperback 0.450469 -0.0710272 -0.56539
thorax 15.043 -0.666209 3.1033
lowerneck -5.53544 1.91988 -0.790011
upperneck 10.2189 2.00308 4.05229
head 4.31039 1.06044 1.61024
rclavicle -5.86415e-015 1.11319e-014
rhumerus -35.0268 -17.2887 -81.6037
rradius 33.7879
rwrist -5.99877
rhand -15.9949 -87.2595
rfingers 7.12502
rthumb 10.205 -243.008
lclavicle -5.86415e-015 1.11319e-014
lhumerus -29.6113 4.53444 81.6627
lradius 25.6276
lwrist -2.82629
lhand -22.3287 -13.0741
lfingers 7.12502
lthumb 4.09139 16.8663
rfemur -22.9389 6.60582 20.4247
rtibia 10.8901
rfoot -19.9785 -5.76017
rtoes -13.1796
lfemur -26.1322 -11.6587 -19.3588
ltibia 13.8237
lfoot -7.95609 -3.87313
ltoes -31.9257
142
root 16.5912 16.3486 21.479 -156.266 -5.32322 177.157
lowerback -27.0366 -1.47584 -6.78551
upperback 0.491792 -0.0260414 -0.603778
thorax 15.02 -0.632852 3.01811
lowerneck -5.55382 2.11268 -0.90736
upperneck 10.1465 2.26225 4.21793
head 4.27799 1.19268 1.70009
rclavicle 4.57205e-015 -2.34566e-014
rhumerus -34.9118 -17.2997 -81.6672
rradius 33.8028
rwrist -5.9523
rhand -15.9218 -87.3576
rfingers 7.12502
rthumb 10.2756 -242.913
lclavicle 4.57205e-015 -2.34566e-014
lhumerus -29.4968 4.31918 81.7055
lradius 25.7181
lwrist -2.73626
lhand -22.5932 -12.8799
lfingers 7.12502
lthumb 3.83593 17.0653
rfemur -23.1224 6.43124 20.5574
rtibia 11.2341
rfoot -20.2089 -5.71725
rtoes -13.3506
lfemur -26.4773 -11.827 -19.2076
ltibia 14.3753
lfoot -8.13265 -3.88656
ltoes -31.9004
